# xmcd
#
# Track frame offsets:
#	150
#	25839
#	83043
#	144156
#	168562
#	195863
#	220522
#	281790
#	298369
#	336188
#
# Disc length: 4764 seconds
#
# Revision: 4
# Processed by: cddbd v1.5.2PL0 Copyright (c) Steve Scherf et al.
# Submitted via: EZCDAudioConverter 2.1.7.1
#
DISCID=8f129a0a
DTITLE=Jethro Tull - Stand Up 2/2
DYEAR=1969
DGENRE=
TTITLE0=Nothing Is Easy [Live]
TTITLE1=My God [Live]
TTITLE2=With You There To Help Me/By Kind Permission Of [Live]
TTITLE3=A Song For Jeffrey [Live]
TTITLE4=To Cry You A Song [Live]
TTITLE5=Sossity, You're A Woman/Reasons For Waiting/Sossity, You're A Woman [L
TTITLE5=ive]
TTITLE6=Dharma For One [Live]
TTITLE7=We Used To Know [Live]
TTITLE8=Guitar Solo [Live]
TTITLE9=For A Thousand Mothers [Live]
EXTD=
EXTT0=
EXTT1=
EXTT2=
EXTT3=
EXTT4=
EXTT5=
EXTT6=
EXTT7=
EXTT8=
EXTT9=
PLAYORDER=
